<svg viewBox="0 0 150 150" fill="none" xmlns="http://www.w3.org/2000/svg">
<path d="M86.0214 0H147.727C148.982 0 150 1.01753 150 2.27273V96.5744C150 98.8332 147.062 99.7089 145.826 97.8188L84.1196 3.51714C83.1305 2.00559 84.215 0 86.0214 0Z" fill="#246DFF"/>
<path d="M63.9786 0H2.27273C1.01753 0 0 1.01753 0 2.27273V96.5744C0 98.8332 2.93774 99.7089 4.1745 97.8188L65.8804 3.51714C66.8695 2.00559 65.785 0 63.9786 0Z" fill="#20A34E"/>
<path d="M73.9429 75.5012L3.84485 146.126C2.42137 147.56 3.43724 150 5.45792 150H144.6C146.612 150 147.632 147.578 146.225 146.139L77.1811 75.5135C76.2942 74.6063 74.8365 74.6008 73.9429 75.5012Z" fill="#F86606"/>
</svg>
