<svg xmlns="http://www.w3.org/2000/svg" viewBox="0 0 128 128"><path fill="#50fa7b" d="M64 8 105 23v37c0 30.4-17.6 52.9-41 62-23.4-9.1-41-31.6-41-62V23z"/><path fill="#1a2e1f" d="M64 19 95 30.4V60c0 24.1-13.4 42.4-31 50.3C46.4 102.4 33 84.1 33 60V30.4z"/><path fill="none" stroke="#50fa7b" stroke-width="6" d="M54 63v-9a10 10 0 0 1 20 0v9"/><rect x="48" y="62" width="32" height="27" rx="5" fill="#50fa7b"/><circle cx="64" cy="72" r="4.5" fill="#1a2e1f"/><path fill="#1a2e1f" d="M61.8 74h4.4l1.6 9h-7.6z"/></svg>
