<svg xmlns="http://www.w3.org/2000/svg" viewBox="0 0 80 80" fill="none">
  <g fill-rule="nonzero">
    <path fill="#fff" d="M61.052 18.947H18.947v42.105h42.105z"/>
    <path fill="#EA4335" d="M61.053 80 80 61.053H61.053z"/>
    <path fill="#FBBC04" d="M80 18.947H61.053v42.105H80z"/>
    <path fill="#34A853" d="M61.052 61.053H18.947V80h42.105z"/>
    <path fill="#188038" d="M0 61.053v12.632A6.314 6.314 0 0 0 6.316 80h12.632V61.053z"/>
    <path fill="#1967D2" d="M80 18.947V6.316A6.314 6.314 0 0 0 73.685 0H61.053v18.947z"/>
    <path fill="#4285F4" d="M61.053 0H6.316A6.314 6.314 0 0 0 0 6.316v54.737h18.947V18.947h42.105V0z"/>
    <path fill="#4285F4" d="M27.584 51.611c-1.574-1.063-2.663-2.616-3.258-4.668l3.653-1.505c.332 1.263.913 2.263 1.737 2.937 1.239 1.043 1.821 1.037 2.989 1.037 1.195 0 2.195-.363 3.079-1.089 1.287-1.089 1.29-1.653 1.29-2.774a3.44 3.44 0 0 0-1.358-2.811c-.905-.727-2.042-1.089-3.4-1.089h-2.111v-3.616H32.1c1.168 0 2.168-.316 2.953-.947 1.201-.947 1.2-1.495 1.2-2.595 0-.978-.358-1.79-1.074-2.342-1.074-.875-1.621-.879-2.721-.879-1.074-.001-1.932.286-2.558.858-.948.86-1.106 1.301-1.379 2.111l-3.616-1.505c.479-1.358 1.358-2.558 2.647-3.595s2.937-1.558 4.937-1.558c1.48-.001 2.816.286 3.989.858 1.769.86 2.105 1.368 2.774 2.379s1 2.153 1 3.416c0 1.288-.311 2.384-.932 3.274-.932 1.342-1.384 1.579-2.289 2.058v.216a6.95 6.95 0 0 1 2.937 2.289c.764 1.025 1.147 2.296 1.147 3.684.001 2.146-.363 2.711-1.089 3.832s-1.732 2.005-3.005 2.647c-1.279.642-2.716.968-4.311.968-1.847.005-3.553-.526-5.126-1.589zm22.437-18.126-4.01 2.9-2.005-3.042 7.195-5.189h2.758v24.479h-3.937V33.484z"/>
  </g>
</svg>
